<?xml version="1.0" encoding="UTF-8" standalone="no"?>
<svg width="150px" height="41px" viewBox="0 0 150 41" version="1.1" xmlns="http://www.w3.org/2000/svg" xmlns:xlink="http://www.w3.org/1999/xlink">
    <!-- Generator: Sketch 41.2 (35397) - http://www.bohemiancoding.com/sketch -->
    <title>Page 1</title>
    <desc>Created with Sketch.</desc>
    <defs>
        <polygon id="path-1" points="0.000552531736 0.209767442 0.000552531736 33.4858152 57.9500811 33.4858152 57.9500811 0.209767442"></polygon>
        <polygon id="path-3" points="18.2702939 21.3156057 18.2702939 0.572341759 0.00138457551 0.572341759 0.00138457551 21.3156057 18.2702939 21.3156057"></polygon>
    </defs>
    <g id="diwanee-corp-" stroke="none" stroke-width="1" fill="none" fill-rule="evenodd">
        <g id="Desktop-HD-Copy" transform="translate(-473.000000, -35.000000)">
            <g id="Page-1" transform="translate(473.000000, 35.000000)">
                <path d="M37.8093784,6.36502406 C37.8093784,7.82245177 36.6509035,8.7928542 35.2253716,8.7928542 C33.9766499,8.7928542 32.996827,7.82245177 32.996827,6.62951345 C32.996827,5.17390981 34.1553018,4.20168332 35.5826755,4.20168332 C36.8295554,4.20168332 37.8093784,5.17390981 37.8093784,6.36502406" id="Fill-1" fill="#FFFFFF"></path>
                <path d="M120.780122,38.3618552 C120.780122,39.8192829 119.621648,40.7896853 118.196116,40.7896853 C116.949236,40.7896853 115.967571,39.8192829 115.967571,38.6263446 C115.967571,37.170741 117.127888,36.2003385 118.55342,36.2003385 C119.800299,36.2003385 120.780122,37.170741 120.780122,38.3618552" id="Fill-3" fill="#C41230"></path>
                <path d="M127.400742,38.3618552 C127.400742,39.8192829 126.244109,40.7896853 124.816735,40.7896853 C123.569855,40.7896853 122.58819,39.8192829 122.58819,38.6263446 C122.58819,37.170741 123.750349,36.2003385 125.174039,36.2003385 C126.422761,36.2003385 127.400742,37.170741 127.400742,38.3618552" id="Fill-5" fill="#C41230"></path>
                <g id="Group-9" transform="translate(0.000000, 0.660262)">
                    <mask id="mask-2" fill="white">
                        <use xlink:href="#path-1"></use>
                    </mask>
                    <g id="Clip-8"></g>
                    <path d="M7.57576264,31.1072348 C5.43746482,31.1072348 4.01009117,29.7811397 4.01009117,26.6929982 C4.01009117,21.6622277 7.39895248,13.0982439 11.8542001,13.0982439 C15.2412196,13.0982439 16.17684,16.0988303 16.17684,18.3515503 C16.17684,22.234984 12.4785609,31.1072348 7.57576264,31.1072348 M54.1615551,13.0945958 C52.7802258,13.0945958 51.7083142,14.1543774 51.7083142,15.4768243 C51.7083142,18.3916797 56.3458973,18.0378111 56.3458973,21.7899122 C56.3458973,22.9810265 54.7417135,30.1313602 48.4575858,30.1313602 C43.696604,30.1313602 43.5897812,28.7104138 43.6873952,27.2219769 C43.8531547,25.8721691 44.6506422,25.0750528 44.7279966,21.669524 C44.7279966,19.5408404 43.6192496,17.3464906 41.786686,17.3464906 C40.7110909,17.3464906 39.8786097,18.1691438 39.8786097,19.1979163 C39.8786097,21.4634047 43.4811167,21.1897949 43.4811167,24.1064744 C43.4811167,26.3573703 41.0628694,30.6731074 37.2614511,30.1587211 C36.5118497,30.1587211 35.8432863,30.0438051 35.2483938,29.8212692 C35.1489381,29.7756675 35.03659,29.7264178 34.9076659,29.677168 C34.242786,29.3597808 33.6902543,28.887348 33.2629631,28.2489254 C32.4452161,26.6656372 33.1229884,24.575259 33.1229884,24.575259 L33.0861529,24.629981 C34.0291404,21.2591094 35.2410267,17.0619365 35.2410267,15.526074 C35.2410267,13.5834451 34.1709569,12.0384623 31.6311527,12.0384623 C27.8131584,12.0384623 26.0818923,16.3231903 25.590139,18.0797646 C25.5422529,18.2512267 22.8735247,26.5452489 22.6396196,27.1781994 C21.9710562,29.0332732 20.9912332,30.576432 19.4754545,30.576432 C18.4956315,30.576432 18.0941251,30.0036756 18.0941251,29.1664299 C18.0941251,28.0172692 18.451429,26.6929982 24.5569047,0.209402629 C18.451429,1.66683033 16.443897,1.35673933 16.443897,2.15203155 C16.443897,2.90354621 19.2986443,2.41652093 19.2986443,4.62363923 C19.2986443,5.77097594 19.0757899,6.65564732 16.9798528,16.2319871 L16.8914477,16.2319871 C16.2670869,14.2911822 15.1528145,12.0384623 11.765795,12.0384623 C6.15023076,12.0384623 0.000552531736,18.9680841 0.000552531736,25.7225958 C0.000552531736,30.1350083 2.13885035,32.7835503 5.88317375,32.7835503 C9.40280092,32.7835503 12.3901558,30.268165 14.7955107,25.89953 L14.8839157,25.9870851 C14.6168587,27.0906443 14.4400486,28.1923794 14.4400486,29.1664299 C14.4400486,31.2385674 15.5082766,32.7835503 17.8712707,32.7835503 C20.215847,32.7835503 21.7279422,31.0889941 22.6488284,29.3524845 C23.3431766,28.0446301 26.593905,17.7660255 26.6399493,17.6456372 C27.3508735,15.7905634 28.33438,14.2455806 29.8464752,14.2455806 C30.8299817,14.2455806 31.2314881,14.820161 31.2314881,15.6592307 C31.2314881,15.8124522 31.2038615,16.0258677 31.1559754,16.2885331 L31.1559754,16.2903571 C31.0602032,16.7299567 30.6863234,18.1837363 30.2792917,19.7433116 C30.1043233,20.3561974 29.9183043,21.0037403 29.72676,21.6585796 C29.5610004,22.2422803 29.4283928,22.8059163 29.3252536,23.3586079 C29.1742282,23.9313642 29.0655637,24.3344825 29.0342535,24.4493986 C28.9126965,25.0549881 28.7929813,25.9141225 28.7929813,26.7604886 C28.7929813,28.5079426 29.2294814,29.9106483 29.9643486,30.9467171 C30.957064,32.3439507 34.9721279,34.0804603 37.9465904,32.7069395 C37.9521157,32.7051155 37.9576411,32.7014673 37.9668499,32.6978192 C38.9927172,32.2910528 39.9467553,31.648982 40.8013377,30.8445695 C41.9248189,32.382256 43.7150218,33.4858152 45.9601424,33.4858152 C52.5131688,33.4858152 57.9500811,25.9396595 57.9500811,18.6561691 C57.9500811,15.920072 56.5227074,13.0945958 54.1615551,13.0945958" id="Fill-7" fill="#FFFFFF" mask="url(#mask-2)"></path>
                </g>
                <path d="M65.5925159,32.198523 C63.7212751,32.198523 62.4301926,31.4032307 62.4301926,27.9612206 C62.4301926,22.3996473 65.8172121,14.1895321 70.2724597,14.1895321 C72.7257006,14.1895321 74.5950996,15.7764684 74.5950996,19.3096817 C74.5950996,22.7516918 71.0312699,32.198523 65.5925159,32.198523 M123.239994,13.9250427 C124.755772,13.9250427 125.779798,14.7185108 125.779798,16.6611397 C125.779798,17.8084764 125.422494,19.2221266 124.444513,20.3694633 C122.750082,22.3558698 118.160385,23.1493379 114.907815,23.7676959 C115.397727,16.7049173 120.167917,13.9250427 123.239994,13.9250427 M121.770259,31.3156756 C118.49743,31.3156756 116.381233,29.774341 115.449296,27.6110002 C115.064366,26.7099122 114.88203,25.7012044 114.907815,24.6505432 C118.24879,24.0321852 121.457158,23.2824946 123.195791,22.7079143 C127.697083,21.206709 129.168659,19.178349 129.168659,17.2794977 C129.168659,14.6929739 126.94564,13.2519628 123.766741,13.1425189 C123.750165,13.1406948 123.739114,13.1370467 123.722538,13.1370467 C123.674652,13.1352226 123.630449,13.1370467 123.586247,13.1352226 C123.51626,13.1352226 123.446272,13.1297505 123.376285,13.1297505 C123.341291,13.1297505 123.306298,13.1333986 123.274987,13.1333986 C117.786505,13.0513157 113.484125,16.0081246 111.938878,20.0028263 C111.283207,21.7867616 108.524232,28.9462156 108.37689,29.2617788 C107.73227,30.6425958 106.851902,31.6695442 105.617915,31.6695442 C104.638092,31.6695442 104.236586,31.0949638 104.236586,30.255894 C104.236586,28.9334471 106.822434,20.2800841 106.822434,17.9854107 C106.822434,15.2055361 104.905149,13.1297505 102.009883,13.1297505 C98.5326162,13.1297505 96.2580273,15.2912671 93.718223,19.8404845 L93.629818,19.7511054 C93.8066281,18.9539891 93.9410775,17.6771438 93.9410775,16.7505189 C93.9410775,14.6765573 92.7826026,13.1297505 90.3312035,13.1297505 C87.0031207,13.1297505 85.2589621,16.3893541 84.5443544,18.386705 C84.5443544,18.386705 81.2015374,27.7058516 80.5274487,29.1942884 C79.85336,30.6809011 79.1387523,31.3156756 78.1184103,31.3156756 C77.3153975,31.3156756 76.7352392,30.8286504 76.7352392,29.9914047 C76.7352392,28.6671337 77.1367456,27.4741953 78.6967269,20.0155947 C79.3210878,17.1025634 80.8350247,14.7185108 80.8350247,14.0581994 C80.8350247,13.7043308 80.614012,13.483619 80.3009107,13.483619 C79.6765498,13.483619 79.0963915,14.2333096 75.3981124,17.5877646 C75.0426503,16.2653177 74.1051882,13.1297505 70.1398521,13.1297505 C65.5925159,13.1297505 58.4188122,18.7807029 58.4188122,27.3848162 C58.4188122,31.2262965 60.290053,33.8748384 64.1688258,33.8748384 C69.023738,33.8748384 71.6979916,29.5937585 72.7257006,27.7842863 L72.8141057,27.8718415 C72.7257006,28.8422439 72.7257006,29.4186483 72.7257006,30.1227373 C72.7257006,32.5505674 73.8823337,33.8748384 76.4681822,33.8748384 C78.890113,33.8748384 80.5587588,31.6841367 81.3083602,29.9676918 C82.0616452,28.253071 85.3400001,18.7369254 85.3400001,18.7369254 C86.0527661,16.8836756 87.0344308,15.3368688 88.5502095,15.3368688 C89.5300325,15.3368688 89.9296971,15.9990042 89.9296971,16.9694067 C89.9296971,18.6913238 88.1929057,26.5037929 86.7231713,33.6979041 C87.299646,33.5227939 87.9258487,33.4334148 88.4581209,33.4334148 C88.9940767,33.4334148 89.7510452,33.5227939 90.5116972,33.6979041 L92.5597482,25.3564562 C93.184109,22.841071 96.1272614,14.8060659 100.359655,14.8060659 C101.963838,14.8060659 102.811054,15.7345149 102.811054,17.2357201 C102.811054,19.5303935 100.227047,27.7842863 100.227047,30.255894 C100.227047,32.3298556 101.295275,33.8748384 103.744832,33.8748384 C106.428295,33.8748384 107.875928,32.4338273 108.945998,30.2175887 C109.292251,29.5280922 110.896435,25.3838172 110.896435,25.3838172 C110.90196,26.9342722 111.279523,28.4172368 111.977555,29.6959062 C113.322049,32.1620417 115.863695,33.8748384 119.230455,33.8748384 C125.245684,33.8748384 128.724792,28.0049982 128.544298,28.0049982 C128.2754,28.0049982 123.553095,31.3156756 121.770259,31.3156756" id="Fill-10" fill="#FFFFFF"></path>
                <path d="M131.648974,26.5072586 C129.939809,28.9040797 126.486486,32.74556 121.364517,33.7761565 C120.504409,33.9512667 119.773225,34.0297015 118.644219,33.8564154 C114.061889,32.9826884 114.564693,26.799109 114.60337,26.4871939 C114.643889,26.1771029 115.004877,26.0895478 115.063813,26.3576853 C115.108016,26.574749 115.809731,30.463655 121.051416,30.6515337 C125.410891,30.6241727 129.45174,26.6404154 132.148095,21.6315337 C132.431728,21.104379 133.391291,19.1489816 133.586519,18.8388906 C133.781747,18.5287996 134.446627,18.5087349 134.094848,19.7290342 C133.74307,20.9511575 132.630639,25.1556267 131.648974,26.5072586" id="Fill-12" fill="#C41230"></path>
                <g id="Group-16" transform="translate(131.532111, 12.558138)">
                    <mask id="mask-4" fill="white">
                        <use xlink:href="#path-3"></use>
                    </mask>
                    <g id="Clip-15"></g>
                    <path d="M4.01092321,11.2102872 C7.26349337,10.5919292 11.8568739,9.79663701 13.5494628,7.81023054 C14.5274439,6.66289383 14.8847478,5.25106775 14.8847478,4.10373104 C14.8847478,2.16110212 13.8588805,1.36763397 12.3449436,1.36763397 C9.27102534,1.36763397 4.50083468,4.14568453 4.01092321,11.2102872 M12.479393,0.572341759 C15.8664125,0.572341759 18.2717673,2.0279454 18.2717673,4.72026491 C18.2717673,6.61911628 16.8001911,8.6493003 12.300741,10.1505056 C10.5621078,10.7232619 7.35189844,11.4747765 4.01092321,12.0931345 C3.92251813,15.6664772 6.23946788,18.7564429 10.8733674,18.7564429 C12.6562031,18.7564429 14.2603869,17.9629747 15.2402099,17.2552376 C17.0248874,15.9765683 17.3803495,15.4475895 17.6474065,15.4475895 C17.8260584,15.4475895 17.9605078,15.5789221 17.9605078,15.799634 C17.9605078,16.3742144 14.3506338,21.3156057 8.33540494,21.3156057 C3.20791042,21.3156057 0.00138457551,17.3446168 0.00138457551,12.7990475 C0.00138457551,4.67831143 8.02046185,0.572341759 12.479393,0.572341759" id="Fill-14" fill="#FFFFFF" mask="url(#mask-4)"></path>
                </g>
                <path d="M136.006976,16.273526 C137.699565,13.624984 139.677629,10.637166 142.160338,10.637166 C143.764522,10.637166 145.23794,11.6951236 145.23794,13.7709092 C145.23794,16.1549618 142.204541,19.6407494 141.537819,19.6407494 C141.314964,19.6407494 141.226559,19.5513703 141.226559,19.288705 C141.226559,18.7141246 143.364857,17.6105654 143.364857,15.2721145 C143.364857,14.3892671 142.919148,13.3750872 141.493616,13.3750872 C140.438281,13.3750872 139.482401,13.8602884 138.633344,14.5753217 C138.528363,14.666525 136.520831,15.8412226 136.006976,16.273526" id="Fill-17" fill="#C41230"></path>
            </g>
        </g>
    </g>
</svg>
