<?xml version="1.0" encoding="utf-8"?>
<!-- Generator: Adobe Illustrator 21.0.0, SVG Export Plug-In . SVG Version: 6.00 Build 0)  -->
<svg version="1.1" id="Layer_1" xmlns="http://www.w3.org/2000/svg" xmlns:xlink="http://www.w3.org/1999/xlink" x="0px" y="0px"
	 viewBox="0 0 53 53" style="enable-background:new 0 0 53 53;" xml:space="preserve">
<style type="text/css">
	.st0{enable-background:new    ;}
	.st1{fill:#262626;}
</style>
<title>Group 8</title>
<desc>Created with Sketch.</desc>
<g id="diwanee-corp-">
	<g id="Desktop-HD-Copy" transform="translate(-861.000000, -8263.000000)">
		<g id="Group-8" transform="translate(862.000000, 8264.000000)">
			<g class="st0">
				<path class="st1" d="M31.8,18.1h-2.1c-1.6,0-2,0.8-2,1.9v2.5h3.9l-0.5,4h-3.4v10.2h-4.1V26.5h-3.4v-4h3.4v-2.9
					c0-3.4,2.1-5.2,5.1-5.2c1.4,0,2.7,0.1,3.1,0.2V18.1z"/>
			</g>
			<g id="Oval-6">
				<path d="M25.5,51.5c-14.3,0-26-11.7-26-26c0-14.3,11.7-26,26-26c14.3,0,26,11.7,26,26C51.5,39.8,39.8,51.5,25.5,51.5z M25.5,0.5
					c-13.8,0-25,11.2-25,25s11.2,25,25,25s25-11.2,25-25S39.3,0.5,25.5,0.5z"/>
			</g>
		</g>
	</g>
</g>
</svg>
