<?xml version="1.0" encoding="utf-8"?>
<!-- Generator: Adobe Illustrator 21.0.0, SVG Export Plug-In . SVG Version: 6.00 Build 0)  -->
<svg version="1.1" id="Layer_1" xmlns="http://www.w3.org/2000/svg" xmlns:xlink="http://www.w3.org/1999/xlink" x="0px" y="0px"
	 viewBox="0 0 53 53" style="enable-background:new 0 0 53 53;" xml:space="preserve">
<style type="text/css">
	.st0{fill:#262626;}
</style>
<title>Group 8</title>
<desc>Created with Sketch.</desc>
<g id="Oval-6_1_">
	<path d="M27,52.5c-14.3,0-26-11.7-26-26s11.7-26,26-26s26,11.7,26,26S41.3,52.5,27,52.5z M27,1.5c-13.8,0-25,11.2-25,25
		s11.2,25,25,25s25-11.2,25-25S40.8,1.5,27,1.5z"/>
</g>
<g>
	<path class="st0" d="M37,33.5c0,1-0.8,1.8-1.8,1.8H18.8c-1,0-1.8-0.8-1.8-1.8V21.4c0-1,0.8-1.8,1.8-1.8h16.4c1,0,1.8,0.8,1.8,1.8
		V33.5z M35.2,21H18.8c-0.2,0-0.4,0.2-0.4,0.4c0,1.3,0.6,2.4,1.6,3.2c1.5,1.2,3,2.4,4.5,3.5c0.6,0.5,1.7,1.5,2.4,1.5h0h0
		c0.8,0,1.9-1,2.4-1.5c1.5-1.2,3-2.4,4.5-3.5c0.7-0.6,1.6-1.8,1.6-2.8C35.5,21.5,35.6,21,35.2,21z M35.5,24.9
		c-0.2,0.3-0.5,0.5-0.8,0.7c-1.6,1.2-3.2,2.5-4.8,3.8c-0.8,0.7-1.9,1.6-3,1.6h0h0c-1.2,0-2.2-0.9-3-1.6c-1.6-1.3-3.2-2.5-4.8-3.8
		c-0.3-0.2-0.5-0.5-0.8-0.7v8.6c0,0.2,0.2,0.4,0.4,0.4h16.4c0.2,0,0.4-0.2,0.4-0.4V24.9z"/>
</g>
</svg>
