<?xml version="1.0" encoding="utf-8"?>
<!-- Generator: Adobe Illustrator 21.0.0, SVG Export Plug-In . SVG Version: 6.00 Build 0)  -->
<svg version="1.1" id="Layer_1" xmlns="http://www.w3.org/2000/svg" xmlns:xlink="http://www.w3.org/1999/xlink" x="0px" y="0px"
	 viewBox="0 0 53 53" style="enable-background:new 0 0 53 53;" xml:space="preserve">
<style type="text/css">
	.st0{enable-background:new    ;}
	.st1{fill:#262626;}
</style>
<title>Group 10</title>
<desc>Created with Sketch.</desc>
<g id="diwanee-corp-">
	<g id="Desktop-HD-Copy" transform="translate(-933.000000, -8263.000000)">
		<g id="Group-10" transform="translate(934.000000, 8264.000000)">
			<g class="st0">
				<path class="st1" d="M34.5,22.1c0,0.2,0,0.4,0,0.6c0,5.7-4.4,12.3-12.3,12.3c-2.5,0-4.7-0.7-6.6-1.9c0.3,0,0.7,0.1,1,0.1
					c2,0,3.9-0.7,5.4-1.8c-1.9,0-3.5-1.3-4-3c0.3,0,0.5,0.1,0.8,0.1c0.4,0,0.8-0.1,1.1-0.1c-2-0.4-3.5-2.1-3.5-4.2c0,0,0,0,0-0.1
					c0.6,0.3,1.2,0.5,2,0.5c-1.2-0.8-1.9-2.1-1.9-3.6c0-0.8,0.2-1.5,0.6-2.2c2.1,2.6,5.3,4.3,8.9,4.5c-0.1-0.3-0.1-0.7-0.1-1
					c0-2.4,1.9-4.3,4.3-4.3c1.2,0,2.4,0.5,3.2,1.4c1-0.2,1.9-0.5,2.7-1c-0.3,1-1,1.8-1.9,2.4c0.9-0.1,1.7-0.3,2.5-0.7
					C36.1,20.7,35.4,21.5,34.5,22.1z"/>
			</g>
			<g id="Oval-6-Copy">
				<path class="st1" d="M25.5,51.5c-14.3,0-26-11.7-26-26c0-14.3,11.7-26,26-26c14.3,0,26,11.7,26,26
					C51.5,39.8,39.8,51.5,25.5,51.5z M25.5,0.5c-13.8,0-25,11.2-25,25s11.2,25,25,25s25-11.2,25-25S39.3,0.5,25.5,0.5z"/>
			</g>
		</g>
	</g>
</g>
</svg>
